{
  "accessors": [
    {
      "bufferView": 2,
      "componentType": 5126,
      "count": 3044,
      "max": [
        0.5,
        0.5000010132789612,
        0.5
      ],
      "min": [
        -0.5,
        -0.4999989867210388,
        -0.5
      ],
      "type": "VEC3"
    },
    {
      "bufferView": 2,
      "byteOffset": 36528,
      "componentType": 5126,
      "count": 3044,
      "max": [
        0.9999991059303284,
        1.0,
        0.9999998807907104
      ],
      "min": [
        -0.9999973177909851,
        -1.0,
        -1.0
      ],
      "type": "VEC3"
    },
    {
      "bufferView": 1,
      "componentType": 5126,
      "count": 3044,
      "max": [
        1.0,
        0.992688000202179
      ],
      "min": [
        0.0,
        0.0
      ],
      "type": "VEC2"
    },
    {
      "bufferView": 0,
      "componentType": 5125,
      "count": 5484,
      "type": "SCALAR"
    },
    {
      "bufferView": 2,
      "byteOffset": 73056,
      "componentType": 5126,
      "count": 156,
      "max": [
        0.5,
        0.5,
        0.5
      ],
      "min": [
        -0.5,
        -0.5,
        -0.5
      ],
      "type": "VEC3"
    },
    {
      "bufferView": 2,
      "byteOffset": 74928,
      "componentType": 5126,
      "count": 156,
      "max": [
        1.0,
        0.0,
        1.0
      ],
      "min": [
        -1.0,
        -1.4982500033511315e-05,
        -1.0
      ],
      "type": "VEC3"
    },
    {
      "bufferView": 1,
      "byteOffset": 24352,
      "componentType": 5126,
      "count": 156,
      "max": [
        1.0,
        0.9940530061721802
      ],
      "min": [
        0.0,
        0.0
      ],
      "type": "VEC2"
    },
    {
      "bufferView": 0,
      "byteOffset": 21936,
      "componentType": 5125,
      "count": 192,
      "type": "SCALAR"
    },
    {
      "bufferView": 2,
      "byteOffset": 76800,
      "componentType": 5126,
      "count": 2702,
      "max": [
        0.5,
        0.5,
        0.5
      ],
      "min": [
        -0.5,
        -0.5,
        -0.5
      ],
      "type": "VEC3"
    },
    {
      "bufferView": 2,
      "byteOffset": 109224,
      "componentType": 5126,
      "count": 2702,
      "max": [
        0.9999991059303284,
        1.0,
        0.9999998807907104
      ],
      "min": [
        -0.9999973177909851,
        -1.0,
        -1.0
      ],
      "type": "VEC3"
    },
    {
      "bufferView": 1,
      "byteOffset": 25600,
      "componentType": 5126,
      "count": 2702,
      "max": [
        1.0,
        0.992688000202179
      ],
      "min": [
        0.0,
        0.0
      ],
      "type": "VEC2"
    },
    {
      "bufferView": 0,
      "byteOffset": 22704,
      "componentType": 5125,
      "count": 5484,
      "type": "SCALAR"
    }
  ],
  "asset": {
    "extras": {
      "author": "₦₥₵ ฿₵ (https://sketchfab.com/oxyplik)",
      "license": "CC-BY-4.0 (http://creativecommons.org/licenses/by/4.0/)",
      "source": "https://sketchfab.com/3d-models/bench-1-ca150fe09fd44782baede92f07dd3258",
      "title": "Bench #1"
    },
    "generator": "Sketchfab-15.66.0",
    "version": "2.0"
  },
  "bufferViews": [
    {
      "buffer": 0,
      "byteLength": 44640,
      "name": "floatBufferViews",
      "target": 34963
    },
    {
      "buffer": 0,
      "byteLength": 47216,
      "byteOffset": 44640,
      "byteStride": 8,
      "name": "floatBufferViews",
      "target": 34962
    },
    {
      "buffer": 0,
      "byteLength": 141648,
      "byteOffset": 91856,
      "byteStride": 12,
      "name": "floatBufferViews",
      "target": 34962
    }
  ],
  "buffers": [
    {
      "byteLength": 233504,
      "uri": "scene.bin"
    }
  ],
  "images": [
    {
      "uri": "textures/Material.003_baseColor.png"
    },
    {
      "uri": "textures/Material.002_baseColor.png"
    },
    {
      "uri": "textures/Material.001_baseColor.png"
    }
  ],
  "materials": [
    {
      "doubleSided": true,
      "name": "Material.003",
      "pbrMetallicRoughness": {
        "baseColorTexture": {
          "index": 0
        },
        "metallicFactor": 0.0,
        "roughnessFactor": 0.6
      }
    },
    {
      "doubleSided": true,
      "name": "Material.002",
      "pbrMetallicRoughness": {
        "baseColorTexture": {
          "index": 1
        },
        "metallicFactor": 0.0,
        "roughnessFactor": 0.6
      }
    },
    {
      "doubleSided": true,
      "name": "Material.001",
      "pbrMetallicRoughness": {
        "baseColorTexture": {
          "index": 2
        },
        "metallicFactor": 0.0,
        "roughnessFactor": 0.6
      }
    }
  ],
  "meshes": [
    {
      "name": "Material_001-material",
      "primitives": [
        {
          "attributes": {
            "NORMAL": 1,
            "POSITION": 0,
            "TEXCOORD_0": 2
          },
          "indices": 3,
          "material": 2,
          "mode": 4
        }
      ]
    },
    {
      "name": "Material_002-material",
      "primitives": [
        {
          "attributes": {
            "NORMAL": 5,
            "POSITION": 4,
            "TEXCOORD_0": 6
          },
          "indices": 7,
          "material": 1,
          "mode": 4
        }
      ]
    },
    {
      "name": "Material_003-material",
      "primitives": [
        {
          "attributes": {
            "NORMAL": 9,
            "POSITION": 8,
            "TEXCOORD_0": 10
          },
          "indices": 11,
          "material": 0,
          "mode": 4
        }
      ]
    }
  ],
  "nodes": [
    {
      "children": [
        1
      ],
      "matrix": [
        1.0,
        0.0,
        0.0,
        0.0,
        0.0,
        2.220446049250313e-16,
        -1.0,
        0.0,
        0.0,
        1.0,
        2.220446049250313e-16,
        0.0,
        0.0,
        0.0,
        0.0,
        1.0
      ],
      "name": "Sketchfab_model"
    },
    {
      "children": [
        2,
        4,
        6
      ],
      "name": "Collada visual scene group"
    },
    {
      "children": [
        3
      ],
      "matrix": [
        -0.3974546,
        1.43689e-05,
        1.53932,
        0.0,
        6.25412e-07,
        -0.0710544,
        8.24743e-07,
        0.0,
        1.04665,
        1.23493e-05,
        0.2702465,
        0.0,
        -0.0746231,
        -1.10243,
        0.256056,
        1.0
      ],
      "name": "prim0"
    },
    {
      "mesh": 0,
      "name": "Material_001-material"
    },
    {
      "children": [
        5
      ],
      "matrix": [
        -0.2564735,
        9.08864e-06,
        0.9933089,
        0.0,
        2.05728e-05,
        -2.29819,
        2.634e-05,
        0.0,
        0.718893,
        8.56275e-06,
        0.185619,
        0.0,
        -0.0247345,
        0.0579681,
        0.513456,
        1.0
      ],
      "name": "prim1"
    },
    {
      "mesh": 1,
      "name": "Material_002-material"
    },
    {
      "children": [
        7
      ],
      "matrix": [
        -0.3974546,
        1.39898e-05,
        1.53932,
        0.0,
        6.4002e-07,
        -0.0710546,
        8.1102e-07,
        0.0,
        1.04665,
        1.25122e-05,
        0.2702465,
        0.0,
        -0.074646,
        1.21837,
        0.256029,
        1.0
      ],
      "name": "prim2"
    },
    {
      "mesh": 2,
      "name": "Material_003-material"
    }
  ],
  "samplers": [
    {
      "magFilter": 9729,
      "minFilter": 9987,
      "wrapS": 10497,
      "wrapT": 10497
    }
  ],
  "scene": 0,
  "scenes": [
    {
      "name": "Sketchfab_Scene",
      "nodes": [
        0
      ]
    }
  ],
  "textures": [
    {
      "sampler": 0,
      "source": 0
    },
    {
      "sampler": 0,
      "source": 1
    },
    {
      "sampler": 0,
      "source": 2
    }
  ]
}
