{
  "accessors": [
    {
      "bufferView": 2,
      "componentType": 5126,
      "count": 6650,
      "max": [
        640.3256225585938,
        673.706787109375,
        762.0824584960938
      ],
      "min": [
        -603.4487915039063,
        -1.601130485534668,
        -702.9338989257813
      ],
      "type": "VEC3"
    },
    {
      "bufferView": 2,
      "byteOffset": 79800,
      "componentType": 5126,
      "count": 6650,
      "max": [
        1.0,
        1.0,
        1.0
      ],
      "min": [
        -1.0,
        -1.0,
        -1.0
      ],
      "type": "VEC3"
    },
    {
      "bufferView": 3,
      "componentType": 5126,
      "count": 6650,
      "max": [
        1.0,
        1.0,
        1.0,
        1.0
      ],
      "min": [
        -1.0,
        -1.0,
        -1.0,
        -1.0
      ],
      "type": "VEC4"
    },
    {
      "bufferView": 1,
      "componentType": 5126,
      "count": 6650,
      "max": [
        0.9992636442184448,
        0.9993599057197571
      ],
      "min": [
        0.00027789862360805273,
        0.0002778122143354267
      ],
      "type": "VEC2"
    },
    {
      "bufferView": 0,
      "componentType": 5125,
      "count": 12843,
      "type": "SCALAR"
    }
  ],
  "asset": {
    "extras": {
      "author": "Gerhald (https://sketchfab.com/Gerhald)",
      "license": "CC-BY-4.0 (http://creativecommons.org/licenses/by/4.0/)",
      "source": "https://sketchfab.com/3d-models/gameready-cottage-free-9203e8f4b67b4d9e8b32c10b2d5e6a57",
      "title": "GameReady Cottage FREE"
    },
    "generator": "Sketchfab-12.65.0",
    "version": "2.0"
  },
  "bufferViews": [
    {
      "buffer": 0,
      "byteLength": 51372,
      "name": "floatBufferViews",
      "target": 34963
    },
    {
      "buffer": 0,
      "byteLength": 53200,
      "byteOffset": 51372,
      "byteStride": 8,
      "name": "floatBufferViews",
      "target": 34962
    },
    {
      "buffer": 0,
      "byteLength": 159600,
      "byteOffset": 104572,
      "byteStride": 12,
      "name": "floatBufferViews",
      "target": 34962
    },
    {
      "buffer": 0,
      "byteLength": 106400,
      "byteOffset": 264172,
      "byteStride": 16,
      "name": "floatBufferViews",
      "target": 34962
    }
  ],
  "buffers": [
    {
      "byteLength": 370572,
      "uri": "scene.bin"
    }
  ],
  "images": [
    {
      "uri": "textures/Cottage_FREE_baseColor.jpeg"
    },
    {
      "uri": "textures/Cottage_FREE_metallicRoughness.png"
    },
    {
      "uri": "textures/Cottage_FREE_normal.jpeg"
    }
  ],
  "materials": [
    {
      "doubleSided": true,
      "name": "Cottage_FREE",
      "normalTexture": {
        "index": 2
      },
      "occlusionTexture": {
        "index": 1,
        "strength": 0.7151295731707317
      },
      "pbrMetallicRoughness": {
        "baseColorTexture": {
          "index": 0
        },
        "metallicRoughnessTexture": {
          "index": 1
        }
      }
    }
  ],
  "meshes": [
    {
      "name": "Cottage_Free_Cottage_FREE_0",
      "primitives": [
        {
          "attributes": {
            "NORMAL": 1,
            "POSITION": 0,
            "TANGENT": 2,
            "TEXCOORD_0": 3
          },
          "indices": 4,
          "material": 0,
          "mode": 4
        }
      ]
    }
  ],
  "nodes": [
    {
      "children": [
        1
      ],
      "matrix": [
        0.011386262252926826,
        0.0,
        0.0,
        0.0,
        0.0,
        2.528258103523934e-18,
        -0.011386262252926826,
        0.0,
        0.0,
        0.011386262252926826,
        2.528258103523934e-18,
        0.0,
        0.0,
        0.0,
        0.0,
        1.0
      ],
      "name": "Sketchfab_model"
    },
    {
      "children": [
        2
      ],
      "matrix": [
        1.0,
        0.0,
        0.0,
        0.0,
        0.0,
        0.0,
        1.0,
        0.0,
        0.0,
        -1.0,
        0.0,
        0.0,
        0.0,
        0.0,
        0.0,
        1.0
      ],
      "name": "Cottage_FREE.fbx"
    },
    {
      "children": [
        3
      ],
      "name": "RootNode"
    },
    {
      "children": [
        4
      ],
      "name": "Cottage_Free"
    },
    {
      "mesh": 0,
      "name": "Cottage_Free_Cottage_FREE_0"
    }
  ],
  "samplers": [
    {
      "magFilter": 9729,
      "minFilter": 9987,
      "wrapS": 10497,
      "wrapT": 10497
    }
  ],
  "scene": 0,
  "scenes": [
    {
      "name": "Sketchfab_Scene",
      "nodes": [
        0
      ]
    }
  ],
  "textures": [
    {
      "sampler": 0,
      "source": 0
    },
    {
      "sampler": 0,
      "source": 1
    },
    {
      "sampler": 0,
      "source": 2
    }
  ]
}
