{
  "accessors": [
    {
      "bufferView": 2,
      "componentType": 5126,
      "count": 2493,
      "max": [
        2.3179829120635986,
        6.807342052459717,
        3.9312312602996826
      ],
      "min": [
        -2.3179829120635986,
        -2.8171608448028564,
        -0.43920695781707764
      ],
      "type": "VEC3"
    },
    {
      "bufferView": 2,
      "byteOffset": 29916,
      "componentType": 5126,
      "count": 2493,
      "max": [
        1.0,
        1.0,
        1.0
      ],
      "min": [
        -1.0,
        -1.0,
        -1.0
      ],
      "type": "VEC3"
    },
    {
      "bufferView": 3,
      "componentType": 5126,
      "count": 2493,
      "max": [
        0.9997884631156921,
        0.9999046921730042,
        0.9984893798828125,
        1.0
      ],
      "min": [
        -0.9997462630271912,
        -0.9999001622200012,
        -0.9995323419570923,
        -1.0
      ],
      "type": "VEC4"
    },
    {
      "bufferView": 1,
      "componentType": 5126,
      "count": 2493,
      "max": [
        0.9968893527984619,
        0.9972536563873291
      ],
      "min": [
        0.0026198269333690405,
        0.002611208474263549
      ],
      "type": "VEC2"
    },
    {
      "bufferView": 0,
      "componentType": 5125,
      "count": 9528,
      "type": "SCALAR"
    }
  ],
  "asset": {
    "extras": {
      "author": "Evan (https://sketchfab.com/Evanz)",
      "license": "CC-BY-4.0 (http://creativecommons.org/licenses/by/4.0/)",
      "source": "https://sketchfab.com/3d-models/garden-cart-c33a102b4efc47ca98b31e56506fc564",
      "title": "Garden Cart"
    },
    "generator": "Sketchfab-12.68.0",
    "version": "2.0"
  },
  "bufferViews": [
    {
      "buffer": 0,
      "byteLength": 38112,
      "name": "floatBufferViews",
      "target": 34963
    },
    {
      "buffer": 0,
      "byteLength": 19944,
      "byteOffset": 38112,
      "byteStride": 8,
      "name": "floatBufferViews",
      "target": 34962
    },
    {
      "buffer": 0,
      "byteLength": 59832,
      "byteOffset": 58056,
      "byteStride": 12,
      "name": "floatBufferViews",
      "target": 34962
    },
    {
      "buffer": 0,
      "byteLength": 39888,
      "byteOffset": 117888,
      "byteStride": 16,
      "name": "floatBufferViews",
      "target": 34962
    }
  ],
  "buffers": [
    {
      "byteLength": 157776,
      "uri": "scene.bin"
    }
  ],
  "images": [
    {
      "uri": "textures/Garden_cart_baseColor.jpeg"
    },
    {
      "uri": "textures/Garden_cart_metallicRoughness.png"
    },
    {
      "uri": "textures/Garden_cart_normal.png"
    }
  ],
  "materials": [
    {
      "doubleSided": true,
      "name": "Garden_cart",
      "normalTexture": {
        "index": 2
      },
      "pbrMetallicRoughness": {
        "baseColorTexture": {
          "index": 0
        },
        "metallicRoughnessTexture": {
          "index": 1
        },
        "roughnessFactor": 0.4602733404981978
      }
    }
  ],
  "meshes": [
    {
      "name": "Garden_cart_Garden cart_0",
      "primitives": [
        {
          "attributes": {
            "NORMAL": 1,
            "POSITION": 0,
            "TANGENT": 2,
            "TEXCOORD_0": 3
          },
          "indices": 4,
          "material": 0,
          "mode": 4
        }
      ]
    }
  ],
  "nodes": [
    {
      "children": [
        1
      ],
      "matrix": [
        1.0,
        0.0,
        0.0,
        0.0,
        0.0,
        2.220446049250313e-16,
        -1.0,
        0.0,
        0.0,
        1.0,
        2.220446049250313e-16,
        0.0,
        0.0,
        0.0,
        0.0,
        1.0
      ],
      "name": "Sketchfab_model"
    },
    {
      "children": [
        2
      ],
      "matrix": [
        1.0,
        0.0,
        0.0,
        0.0,
        0.0,
        0.0,
        1.0,
        0.0,
        0.0,
        -1.0,
        0.0,
        0.0,
        0.0,
        0.0,
        0.0,
        1.0
      ],
      "name": "Garden_cart.fbx"
    },
    {
      "children": [
        3
      ],
      "name": "RootNode"
    },
    {
      "children": [
        4
      ],
      "matrix": [
        100.0,
        0.0,
        0.0,
        0.0,
        0.0,
        -1.629206793918314e-05,
        -99.99999999999868,
        0.0,
        0.0,
        99.99999999999868,
        -1.629206793918314e-05,
        0.0,
        0.0,
        0.0,
        0.0,
        1.0
      ],
      "name": "Garden_cart"
    },
    {
      "mesh": 0,
      "name": "Garden_cart_Garden cart_0"
    }
  ],
  "samplers": [
    {
      "magFilter": 9729,
      "minFilter": 9987,
      "wrapS": 10497,
      "wrapT": 10497
    }
  ],
  "scene": 0,
  "scenes": [
    {
      "name": "Sketchfab_Scene",
      "nodes": [
        0
      ]
    }
  ],
  "textures": [
    {
      "sampler": 0,
      "source": 0
    },
    {
      "sampler": 0,
      "source": 1
    },
    {
      "sampler": 0,
      "source": 2
    }
  ]
}
