{
  "accessors": [
    {
      "bufferView": 2,
      "componentType": 5126,
      "count": 1088,
      "max": [
        377.1025390625,
        627.1025390625,
        401.51123046875
      ],
      "min": [
        -610.738525390625,
        -615.000244140625,
        -77.49276733398438
      ],
      "type": "VEC3"
    },
    {
      "bufferView": 2,
      "byteOffset": 13056,
      "componentType": 5126,
      "count": 1088,
      "max": [
        1.0,
        1.0,
        1.0
      ],
      "min": [
        -1.0,
        -1.0,
        -1.0
      ],
      "type": "VEC3"
    },
    {
      "bufferView": 3,
      "componentType": 5126,
      "count": 1088,
      "max": [
        1.0,
        1.0,
        1.0,
        1.0
      ],
      "min": [
        -1.0,
        -1.0,
        -1.0,
        1.0
      ],
      "type": "VEC4"
    },
    {
      "bufferView": 1,
      "componentType": 5126,
      "count": 1088,
      "max": [
        0.99891197681427,
        0.9983656406402588
      ],
      "min": [
        0.0006647632690146565,
        0.0015592832351103425
      ],
      "type": "VEC2"
    },
    {
      "bufferView": 0,
      "componentType": 5125,
      "count": 2016,
      "type": "SCALAR"
    },
    {
      "bufferView": 2,
      "byteOffset": 26112,
      "componentType": 5126,
      "count": 6790,
      "max": [
        297.90032958984375,
        505.3155517578125,
        -111.111083984375
      ],
      "min": [
        -508.05224609375,
        -507.50048828125,
        -423.47265625
      ],
      "type": "VEC3"
    },
    {
      "bufferView": 2,
      "byteOffset": 107592,
      "componentType": 5126,
      "count": 6790,
      "max": [
        1.0,
        1.0,
        1.0
      ],
      "min": [
        -1.0,
        -1.0,
        -1.0
      ],
      "type": "VEC3"
    },
    {
      "bufferView": 3,
      "byteOffset": 17408,
      "componentType": 5126,
      "count": 6790,
      "max": [
        1.0,
        1.0,
        1.0,
        1.0
      ],
      "min": [
        -1.0,
        -1.0,
        -1.0,
        -1.0
      ],
      "type": "VEC4"
    },
    {
      "bufferView": 1,
      "byteOffset": 8704,
      "componentType": 5126,
      "count": 6790,
      "max": [
        0.9992486834526062,
        0.99974125623703
      ],
      "min": [
        0.00020588152983691543,
        0.0005988441407680511
      ],
      "type": "VEC2"
    },
    {
      "bufferView": 0,
      "byteOffset": 8064,
      "componentType": 5125,
      "count": 14475,
      "type": "SCALAR"
    },
    {
      "bufferView": 2,
      "byteOffset": 189072,
      "componentType": 5126,
      "count": 1056,
      "max": [
        265.0,
        515.00048828125,
        300.0
      ],
      "min": [
        -527.8775634765625,
        -563.9006958007813,
        -367.9171142578125
      ],
      "type": "VEC3"
    },
    {
      "bufferView": 2,
      "byteOffset": 201744,
      "componentType": 5126,
      "count": 1056,
      "max": [
        1.0,
        1.0,
        1.0
      ],
      "min": [
        -1.0,
        -1.0,
        -1.0
      ],
      "type": "VEC3"
    },
    {
      "bufferView": 3,
      "byteOffset": 126048,
      "componentType": 5126,
      "count": 1056,
      "max": [
        1.0,
        1.0,
        1.0,
        1.0
      ],
      "min": [
        -1.0,
        -1.0,
        -1.0,
        1.0
      ],
      "type": "VEC4"
    },
    {
      "bufferView": 1,
      "byteOffset": 63024,
      "componentType": 5126,
      "count": 1056,
      "max": [
        0.9990399479866028,
        0.9991555213928223
      ],
      "min": [
        0.003438569139689207,
        0.0021742312237620354
      ],
      "type": "VEC2"
    },
    {
      "bufferView": 0,
      "byteOffset": 65964,
      "componentType": 5125,
      "count": 1968,
      "type": "SCALAR"
    },
    {
      "bufferView": 2,
      "byteOffset": 214416,
      "componentType": 5126,
      "count": 1612,
      "max": [
        288.00048828125,
        485.9993591308594,
        114.96788024902344
      ],
      "min": [
        -522.7976684570313,
        -558.6893920898438,
        -274.8065490722656
      ],
      "type": "VEC3"
    },
    {
      "bufferView": 2,
      "byteOffset": 233760,
      "componentType": 5126,
      "count": 1612,
      "max": [
        1.0,
        1.0,
        1.0
      ],
      "min": [
        -1.0,
        -1.0,
        -1.0
      ],
      "type": "VEC3"
    },
    {
      "bufferView": 1,
      "byteOffset": 71472,
      "componentType": 5126,
      "count": 1612,
      "max": [
        0.664383590221405,
        0.9390919804573059
      ],
      "min": [
        0.07793442159891129,
        0.05046442151069641
      ],
      "type": "VEC2"
    },
    {
      "bufferView": 0,
      "byteOffset": 73836,
      "componentType": 5125,
      "count": 2652,
      "type": "SCALAR"
    }
  ],
  "asset": {
    "extras": {
      "author": "LukaszKkkk (https://sketchfab.com/LukaszKmak)",
      "license": "CC-BY-4.0 (http://creativecommons.org/licenses/by/4.0/)",
      "source": "https://sketchfab.com/3d-models/old-cottage-ceff67ca56cd47a6b5890f74325ddd7f",
      "title": "Old Cottage"
    },
    "generator": "Sketchfab-12.68.0",
    "version": "2.0"
  },
  "bufferViews": [
    {
      "buffer": 0,
      "byteLength": 84444,
      "name": "floatBufferViews",
      "target": 34963
    },
    {
      "buffer": 0,
      "byteLength": 84368,
      "byteOffset": 84444,
      "byteStride": 8,
      "name": "floatBufferViews",
      "target": 34962
    },
    {
      "buffer": 0,
      "byteLength": 253104,
      "byteOffset": 168812,
      "byteStride": 12,
      "name": "floatBufferViews",
      "target": 34962
    },
    {
      "buffer": 0,
      "byteLength": 142944,
      "byteOffset": 421916,
      "byteStride": 16,
      "name": "floatBufferViews",
      "target": 34962
    }
  ],
  "buffers": [
    {
      "byteLength": 564860,
      "uri": "scene.bin"
    }
  ],
  "extensionsUsed": [
    "KHR_materials_transmission"
  ],
  "images": [
    {
      "uri": "textures/PVC_FoamBoard_Green_baseColor.png"
    },
    {
      "uri": "textures/PVC_FoamBoard_Green_metallicRoughness.png"
    },
    {
      "uri": "textures/PVC_FoamBoard_Green_normal.png"
    },
    {
      "uri": "textures/PVC_FoamBoard_Green_0_baseColor.png"
    },
    {
      "uri": "textures/PVC_FoamBoard_Green_0_metallicRoughness.png"
    },
    {
      "uri": "textures/PVC_FoamBoard_Green_0_normal.png"
    },
    {
      "uri": "textures/PVC_FoamBoard_Green_1_baseColor.png"
    },
    {
      "uri": "textures/PVC_FoamBoard_Green_1_metallicRoughness.png"
    },
    {
      "uri": "textures/PVC_FoamBoard_Green_1_normal.png"
    }
  ],
  "materials": [
    {
      "doubleSided": true,
      "name": "PVC_FoamBoard_Green",
      "normalTexture": {
        "index": 2
      },
      "occlusionTexture": {
        "index": 1
      },
      "pbrMetallicRoughness": {
        "baseColorTexture": {
          "index": 0
        },
        "metallicRoughnessTexture": {
          "index": 1
        }
      }
    },
    {
      "doubleSided": true,
      "name": "PVC_FoamBoard_Green_0",
      "normalTexture": {
        "index": 5
      },
      "occlusionTexture": {
        "index": 4
      },
      "pbrMetallicRoughness": {
        "baseColorTexture": {
          "index": 3
        },
        "metallicRoughnessTexture": {
          "index": 4
        }
      }
    },
    {
      "doubleSided": true,
      "name": "PVC_FoamBoard_Green_1",
      "normalTexture": {
        "index": 8
      },
      "occlusionTexture": {
        "index": 7
      },
      "pbrMetallicRoughness": {
        "baseColorTexture": {
          "index": 6
        },
        "metallicRoughnessTexture": {
          "index": 7
        }
      }
    },
    {
      "alphaMode": "BLEND",
      "doubleSided": true,
      "extensions": {
        "KHR_materials_transmission": {
          "transmissionFactor": 0.9556021341000001
        }
      },
      "name": "PVC_FoamBoard_Red",
      "pbrMetallicRoughness": {
        "baseColorFactor": [
          1.0,
          1.0,
          1.0,
          0.25
        ],
        "metallicFactor": 0.0
      }
    }
  ],
  "meshes": [
    {
      "name": "dach_PVC FoamBoard Green_0",
      "primitives": [
        {
          "attributes": {
            "NORMAL": 1,
            "POSITION": 0,
            "TANGENT": 2,
            "TEXCOORD_0": 3
          },
          "indices": 4,
          "material": 0,
          "mode": 4
        }
      ]
    },
    {
      "name": "DOL_PVC FoamBoard Green_0",
      "primitives": [
        {
          "attributes": {
            "NORMAL": 6,
            "POSITION": 5,
            "TANGENT": 7,
            "TEXCOORD_0": 8
          },
          "indices": 9,
          "material": 1,
          "mode": 4
        }
      ]
    },
    {
      "name": "pietro_PVC FoamBoard Green_0",
      "primitives": [
        {
          "attributes": {
            "NORMAL": 11,
            "POSITION": 10,
            "TANGENT": 12,
            "TEXCOORD_0": 13
          },
          "indices": 14,
          "material": 2,
          "mode": 4
        }
      ]
    },
    {
      "name": "OKNO_PVC FoamBoard Red_0",
      "primitives": [
        {
          "attributes": {
            "NORMAL": 16,
            "POSITION": 15,
            "TEXCOORD_0": 17
          },
          "indices": 18,
          "material": 3,
          "mode": 4
        }
      ]
    }
  ],
  "nodes": [
    {
      "children": [
        1
      ],
      "matrix": [
        1.0,
        0.0,
        0.0,
        0.0,
        0.0,
        2.220446049250313e-16,
        -1.0,
        0.0,
        0.0,
        1.0,
        2.220446049250313e-16,
        0.0,
        0.0,
        0.0,
        0.0,
        1.0
      ],
      "name": "Sketchfab_model"
    },
    {
      "children": [
        2
      ],
      "matrix": [
        1.0,
        0.0,
        0.0,
        0.0,
        0.0,
        0.0,
        1.0,
        0.0,
        0.0,
        -1.0,
        0.0,
        0.0,
        0.0,
        0.0,
        0.0,
        1.0
      ],
      "name": "9ad13e0d344f4658afd04034477e6dd6.fbx"
    },
    {
      "children": [
        3,
        6,
        9,
        12
      ],
      "name": "RootNode"
    },
    {
      "children": [
        4
      ],
      "matrix": [
        1.0,
        0.0,
        0.0,
        0.0,
        0.0,
        2.220446049250313e-16,
        -1.0,
        0.0,
        0.0,
        1.0,
        2.220446049250313e-16,
        0.0,
        0.0,
        0.0,
        0.0,
        1.0
      ],
      "name": "dach"
    },
    {
      "children": [
        5
      ],
      "matrix": [
        1.0,
        0.0,
        -0.0,
        0.0,
        0.0,
        1.0,
        0.0,
        0.0,
        0.0,
        0.0,
        1.0,
        0.0,
        116.818115234375,
        -6.05078125,
        10.980712890625,
        1.0
      ],
      "name": "Object_4"
    },
    {
      "mesh": 0,
      "name": "dach_PVC FoamBoard Green_0"
    },
    {
      "children": [
        7
      ],
      "matrix": [
        1.0,
        0.0,
        0.0,
        0.0,
        0.0,
        2.220446049250313e-16,
        -1.0,
        0.0,
        0.0,
        1.0,
        2.220446049250313e-16,
        0.0,
        0.0,
        0.0,
        0.0,
        1.0
      ],
      "name": "DOL"
    },
    {
      "children": [
        8
      ],
      "matrix": [
        1.0,
        0.0,
        -0.0,
        0.0,
        0.0,
        1.0,
        0.0,
        0.0,
        0.0,
        0.0,
        1.0,
        0.0,
        116.818115234375,
        -6.05078125,
        10.980712890625,
        1.0
      ],
      "name": "Object_7"
    },
    {
      "mesh": 1,
      "name": "DOL_PVC FoamBoard Green_0"
    },
    {
      "children": [
        10
      ],
      "matrix": [
        1.0,
        0.0,
        0.0,
        0.0,
        0.0,
        2.220446049250313e-16,
        -1.0,
        0.0,
        0.0,
        1.0,
        2.220446049250313e-16,
        0.0,
        0.0,
        0.0,
        0.0,
        1.0
      ],
      "name": "pietro"
    },
    {
      "children": [
        11
      ],
      "matrix": [
        1.0,
        0.0,
        -0.0,
        0.0,
        0.0,
        1.0,
        0.0,
        0.0,
        0.0,
        0.0,
        1.0,
        0.0,
        116.818115234375,
        -6.05078125,
        10.980712890625,
        1.0
      ],
      "name": "Object_10"
    },
    {
      "mesh": 2,
      "name": "pietro_PVC FoamBoard Green_0"
    },
    {
      "children": [
        13
      ],
      "matrix": [
        1.0,
        0.0,
        0.0,
        0.0,
        0.0,
        2.220446049250313e-16,
        -1.0,
        0.0,
        0.0,
        1.0,
        2.220446049250313e-16,
        0.0,
        0.0,
        0.0,
        0.0,
        1.0
      ],
      "name": "OKNO"
    },
    {
      "children": [
        14
      ],
      "matrix": [
        1.0,
        0.0,
        -0.0,
        0.0,
        0.0,
        1.0,
        0.0,
        0.0,
        0.0,
        0.0,
        1.0,
        0.0,
        116.818115234375,
        -6.05078125,
        10.980712890625,
        1.0
      ],
      "name": "Object_13"
    },
    {
      "mesh": 3,
      "name": "OKNO_PVC FoamBoard Red_0"
    }
  ],
  "samplers": [
    {
      "magFilter": 9729,
      "minFilter": 9987,
      "wrapS": 10497,
      "wrapT": 10497
    }
  ],
  "scene": 0,
  "scenes": [
    {
      "name": "Sketchfab_Scene",
      "nodes": [
        0
      ]
    }
  ],
  "textures": [
    {
      "sampler": 0,
      "source": 0
    },
    {
      "sampler": 0,
      "source": 1
    },
    {
      "sampler": 0,
      "source": 2
    },
    {
      "sampler": 0,
      "source": 3
    },
    {
      "sampler": 0,
      "source": 4
    },
    {
      "sampler": 0,
      "source": 5
    },
    {
      "sampler": 0,
      "source": 6
    },
    {
      "sampler": 0,
      "source": 7
    },
    {
      "sampler": 0,
      "source": 8
    }
  ]
}
